<svg width="18" height="16" viewBox="0 0 18 16" fill="none" xmlns="http://www.w3.org/2000/svg">
<g opacity="0.4">
<path fill-rule="evenodd" clip-rule="evenodd" d="M12.55 6.85711C12.55 9.42926 10.3837 11.5714 7.64 11.5714C4.89626 11.5714 2.72998 9.42926 2.72998 6.85711C2.72998 4.28496 4.89626 2.14282 7.64 2.14282C10.3837 2.14282 12.55 4.28496 12.55 6.85711ZM11.4442 11.2304C10.4162 12.0672 9.089 12.5714 7.64 12.5714C4.37599 12.5714 1.72998 10.013 1.72998 6.85711C1.72998 3.7012 4.37599 1.14282 7.64 1.14282C10.904 1.14282 13.55 3.7012 13.55 6.85711C13.55 8.2581 13.0286 9.54133 12.1631 10.5353L15.0915 13.3667C15.29 13.5586 15.29 13.8698 15.0915 14.0618C14.893 14.2537 14.5711 14.2537 14.3726 14.0618L11.4442 11.2304Z" fill="#2D2E46"/>
</g>
</svg>
